<svg width="48" height="48" viewBox="0 0 48 48" fill="none" xmlns="http://www.w3.org/2000/svg">
<g filter="url(#filter0_d_338_104)">
<circle cx="27" cy="20" r="20" fill="#B782FA"/>
</g>
<path fill-rule="evenodd" clip-rule="evenodd" d="M20.077 17.2459L22.7008 23.0962L33.95 21.335L28.874 10.0168L20.077 17.2459ZM21.3819 23.6876C21.5117 23.9771 21.733 24.2158 22.0118 24.367C22.2906 24.5182 22.6114 24.5735 22.9247 24.5244L34.1739 22.7632C34.3936 22.7288 34.6024 22.6441 34.784 22.5158C34.9657 22.3875 35.1153 22.219 35.2211 22.0235C35.327 21.8279 35.3864 21.6106 35.3945 21.3883C35.4027 21.1661 35.3595 20.945 35.2682 20.7422L30.1929 9.4253C30.1019 9.22248 29.9655 9.04336 29.7941 8.90187C29.6227 8.76037 29.421 8.6603 29.2046 8.60945C28.9882 8.5586 28.7631 8.55833 28.5466 8.60866C28.3301 8.65899 28.1281 8.75857 27.9564 8.89965L19.1594 16.1287C18.9143 16.3301 18.7423 16.6064 18.6698 16.9152C18.5973 17.2239 18.6284 17.548 18.7582 17.8373L21.3819 23.6876Z" fill="black"/>
<path fill-rule="evenodd" clip-rule="evenodd" d="M18.8075 24.8137L21.5032 23.6048L18.9007 17.8019L16.2011 19.0126C15.8835 20.1317 15.9708 21.3269 16.4475 22.388C16.9243 23.4491 17.7599 24.308 18.8075 24.8137ZM22.0947 24.9236C22.4444 24.7667 22.7176 24.4773 22.854 24.1191C22.9904 23.7608 22.9789 23.3631 22.822 23.0133L20.2196 17.2104C20.0627 16.8607 19.7733 16.5875 19.4151 16.4511C19.0568 16.3147 18.659 16.3262 18.3093 16.4831L15.3459 17.8121C15.2471 17.8563 15.1584 17.9202 15.0851 17.9999C15.0119 18.0796 14.9557 18.1734 14.9201 18.2755C13.8075 21.4532 15.3912 24.9598 18.497 26.2583C18.5983 26.3004 18.7071 26.3214 18.8169 26.3201C18.9266 26.3188 19.0349 26.2953 19.1352 26.2508L22.0947 24.9236Z" fill="black"/>
<path fill-rule="evenodd" clip-rule="evenodd" d="M24.7648 24.629L21.2889 25.7443L22.3118 31.4794L25.7882 29.9203L24.7648 24.629ZM20.8467 24.3697C20.5137 24.4764 20.2307 24.7002 20.0501 24.9997C19.8695 25.2991 19.8036 25.6539 19.8646 25.9982L20.8888 31.7327C20.9273 31.949 21.0146 32.1536 21.144 32.3312C21.2735 32.5087 21.4417 32.6543 21.636 32.757C21.8302 32.8598 22.0452 32.9169 22.2648 32.924C22.4844 32.9312 22.7027 32.8881 22.9032 32.7982L26.3797 31.2391C26.6773 31.1058 26.921 30.8757 27.0714 30.5863C27.2217 30.2968 27.2697 29.9651 27.2076 29.6449L26.1842 24.3536C26.1454 24.1527 26.0645 23.9624 25.9467 23.7951C25.8289 23.6278 25.6769 23.4875 25.5008 23.3833C25.3247 23.2792 25.1286 23.2136 24.9252 23.1909C24.7219 23.1682 24.5161 23.1889 24.3214 23.2517L20.8467 24.3697ZM35.2066 7.83255C35.3687 7.93466 35.4836 8.09694 35.5261 8.28373C35.5686 8.47053 35.5351 8.66655 35.4332 8.82871L34.0464 11.0347C33.9973 11.118 33.932 11.1907 33.8544 11.2483C33.7767 11.3059 33.6883 11.3473 33.5943 11.3702C33.5004 11.393 33.4028 11.3967 33.3074 11.3811C33.2119 11.3656 33.1206 11.331 33.0388 11.2795C32.957 11.228 32.8863 11.1606 32.831 11.0813C32.7757 11.002 32.7368 10.9124 32.7168 10.8178C32.6967 10.7232 32.6958 10.6256 32.7142 10.5306C32.7326 10.4357 32.7698 10.3454 32.8237 10.2651L34.2104 8.05912C34.3126 7.89704 34.4748 7.78213 34.6616 7.73965C34.8484 7.69716 35.0444 7.73058 35.2066 7.83255ZM34.3134 14.3746C34.235 14.1997 34.2293 14.0009 34.2975 13.8217C34.3657 13.6426 34.5022 13.4979 34.6771 13.4195L36.6554 12.5323C36.8302 12.4539 37.0291 12.4481 37.2083 12.5163C37.3874 12.5845 37.5321 12.7211 37.6105 12.896C37.6889 13.0709 37.6947 13.2697 37.6265 13.4489C37.5583 13.628 37.4217 13.7727 37.2468 13.8511L35.2686 14.7383C35.0937 14.8167 34.8948 14.8225 34.7157 14.7543C34.5366 14.6861 34.3919 14.5495 34.3134 14.3746ZM35.7867 17.2464C35.8128 17.1551 35.8566 17.0698 35.9157 16.9954C35.9748 16.9211 36.048 16.8591 36.131 16.813C36.2141 16.7669 36.3054 16.7377 36.3998 16.7269C36.4941 16.7162 36.5897 16.7241 36.681 16.7503L39.1865 17.4626C39.3645 17.5204 39.5131 17.6449 39.6011 17.81C39.6892 17.9751 39.7097 18.1679 39.6585 18.3479C39.6072 18.5279 39.4882 18.6809 39.3264 18.7749C39.1646 18.8689 38.9727 18.8965 38.791 18.8518L36.2849 18.1382C36.1006 18.0859 35.9446 17.9626 35.8512 17.7954C35.7578 17.6282 35.7346 17.4307 35.7867 17.2464Z" fill="black"/>
<defs>
<filter id="filter0_d_338_104" x="0" y="0" width="48" height="48" filterUnits="userSpaceOnUse" color-interpolation-filters="sRGB">
<feFlood flood-opacity="0" result="BackgroundImageFix"/>
<feColorMatrix in="SourceAlpha" type="matrix" values="0 0 0 0 0 0 0 0 0 0 0 0 0 0 0 0 0 0 127 0" result="hardAlpha"/>
<feOffset dx="-3" dy="4"/>
<feGaussianBlur stdDeviation="2"/>
<feComposite in2="hardAlpha" operator="out"/>
<feColorMatrix type="matrix" values="0 0 0 0 0 0 0 0 0 0 0 0 0 0 0 0 0 0 0.25 0"/>
<feBlend mode="normal" in2="BackgroundImageFix" result="effect1_dropShadow_338_104"/>
<feBlend mode="normal" in="SourceGraphic" in2="effect1_dropShadow_338_104" result="shape"/>
</filter>
</defs>
</svg>
