<svg width="14" height="13" viewBox="0 0 14 13" fill="none" xmlns="http://www.w3.org/2000/svg">
<path d="M11.875 7.49688C11.7092 7.49688 11.5503 7.56273 11.4331 7.67994C11.3158 7.79715 11.25 7.95612 11.25 8.12188V10.6219C11.25 10.7876 11.1842 10.9466 11.0669 11.0638C10.9497 11.181 10.7908 11.2469 10.625 11.2469H1.875C1.70924 11.2469 1.55027 11.181 1.43306 11.0638C1.31585 10.9466 1.25 10.7876 1.25 10.6219V4.62813L4.925 8.30938C5.27656 8.66051 5.75312 8.85773 6.25 8.85773C6.74688 8.85773 7.22344 8.66051 7.575 8.30938L8.6 7.28438C8.71769 7.16669 8.78381 7.00707 8.78381 6.84063C8.78381 6.67419 8.71769 6.51457 8.6 6.39688C8.48231 6.27919 8.32269 6.21308 8.15625 6.21308C7.98981 6.21308 7.83019 6.27919 7.7125 6.39688L6.6875 7.42188C6.57067 7.5364 6.4136 7.60054 6.25 7.60054C6.0864 7.60054 5.92933 7.5364 5.8125 7.42188L2.13125 3.74688H6.25C6.41576 3.74688 6.57473 3.68104 6.69194 3.56383C6.80915 3.44661 6.875 3.28764 6.875 3.12188C6.875 2.95612 6.80915 2.79715 6.69194 2.67994C6.57473 2.56273 6.41576 2.49688 6.25 2.49688H1.875C1.37772 2.49688 0.900806 2.69443 0.549175 3.04606C0.197544 3.39769 0 3.8746 0 4.37188V10.6219C0 11.1192 0.197544 11.5961 0.549175 11.9477C0.900806 12.2993 1.37772 12.4969 1.875 12.4969H10.625C11.1223 12.4969 11.5992 12.2993 11.9508 11.9477C12.3025 11.5961 12.5 11.1192 12.5 10.6219V8.12188C12.5 7.95612 12.4342 7.79715 12.3169 7.67994C12.1997 7.56273 12.0408 7.49688 11.875 7.49688ZM12.9437 2.05313L11.0687 0.178133C11.0093 0.121233 10.9392 0.0766299 10.8625 0.0468834C10.7103 -0.0156278 10.5397 -0.0156278 10.3875 0.0468834C10.3108 0.0766299 10.2407 0.121233 10.1813 0.178133L8.30625 2.05313C8.18856 2.17082 8.12244 2.33044 8.12244 2.49688C8.12244 2.66332 8.18856 2.82294 8.30625 2.94063C8.42394 3.05832 8.58356 3.12444 8.75 3.12444C8.91644 3.12444 9.07606 3.05832 9.19375 2.94063L10 2.12813V5.62188C10 5.78764 10.0658 5.94661 10.1831 6.06382C10.3003 6.18104 10.4592 6.24688 10.625 6.24688C10.7908 6.24688 10.9497 6.18104 11.0669 6.06382C11.1842 5.94661 11.25 5.78764 11.25 5.62188V2.12813L12.0563 2.94063C12.1144 2.99921 12.1835 3.04571 12.2596 3.07744C12.3358 3.10917 12.4175 3.12551 12.5 3.12551C12.5825 3.12551 12.6642 3.10917 12.7404 3.07744C12.8165 3.04571 12.8856 2.99921 12.9437 2.94063C13.0023 2.88253 13.0488 2.81341 13.0806 2.73724C13.1123 2.66108 13.1286 2.57939 13.1286 2.49688C13.1286 2.41438 13.1123 2.33268 13.0806 2.25652C13.0488 2.18036 13.0023 2.11124 12.9437 2.05313Z" fill="black"/>
</svg>
