<svg width="48" height="48" viewBox="0 0 48 48" fill="none" xmlns="http://www.w3.org/2000/svg">
<g filter="url(#filter0_d_338_101)">
<circle cx="27" cy="20" r="20" fill="#B782FA"/>
</g>
<path d="M25.7143 21.2857H19.2857C18.9214 21.2857 18.6163 21.1623 18.3703 20.9154C18.1243 20.6686 18.0009 20.3634 18 20C17.9991 19.6366 18.1226 19.3314 18.3703 19.0846C18.618 18.8377 18.9231 18.7143 19.2857 18.7143H25.7143V12.2857C25.7143 11.9214 25.8377 11.6163 26.0846 11.3703C26.3314 11.1243 26.6366 11.0009 27 11C27.3634 10.9991 27.669 11.1226 27.9167 11.3703C28.1644 11.618 28.2874 11.9231 28.2857 12.2857V18.7143H34.7143C35.0786 18.7143 35.3841 18.8377 35.631 19.0846C35.8779 19.3314 36.0009 19.6366 36 20C35.9991 20.3634 35.8757 20.669 35.6297 20.9167C35.3837 21.1644 35.0786 21.2874 34.7143 21.2857H28.2857V27.7143C28.2857 28.0786 28.1623 28.3841 27.9154 28.631C27.6686 28.8779 27.3634 29.0009 27 29C26.6366 28.9991 26.3314 28.8757 26.0846 28.6297C25.8377 28.3837 25.7143 28.0786 25.7143 27.7143V21.2857Z" fill="black"/>
<defs>
<filter id="filter0_d_338_101" x="0" y="0" width="48" height="48" filterUnits="userSpaceOnUse" color-interpolation-filters="sRGB">
<feFlood flood-opacity="0" result="BackgroundImageFix"/>
<feColorMatrix in="SourceAlpha" type="matrix" values="0 0 0 0 0 0 0 0 0 0 0 0 0 0 0 0 0 0 127 0" result="hardAlpha"/>
<feOffset dx="-3" dy="4"/>
<feGaussianBlur stdDeviation="2"/>
<feComposite in2="hardAlpha" operator="out"/>
<feColorMatrix type="matrix" values="0 0 0 0 0 0 0 0 0 0 0 0 0 0 0 0 0 0 0.25 0"/>
<feBlend mode="normal" in2="BackgroundImageFix" result="effect1_dropShadow_338_101"/>
<feBlend mode="normal" in="SourceGraphic" in2="effect1_dropShadow_338_101" result="shape"/>
</filter>
</defs>
</svg>
