<svg width="13" height="11" viewBox="0 0 13 11" fill="none" xmlns="http://www.w3.org/2000/svg">
<path fill-rule="evenodd" clip-rule="evenodd" d="M10.3075 8.15092L11.9146 9.758L11.4193 10.2527L1.6625 0.495833L2.15658 0L3.822 1.66542C4.627 1.34342 5.502 1.16667 6.41667 1.16667C9.22133 1.16667 11.6503 2.828 12.8333 5.25C12.2626 6.42326 11.3911 7.42424 10.3075 8.15092ZM4.36683 2.21083L5.3375 3.1815C5.77788 2.95128 6.28026 2.86766 6.77147 2.94282C7.26268 3.01799 7.71706 3.24801 8.06844 3.59939C8.41982 3.95077 8.64985 4.40516 8.72501 4.89637C8.80018 5.38758 8.71656 5.88995 8.48633 6.33033L9.80175 7.64575C10.7199 7.06242 11.4958 6.244 12.0447 5.25058C10.9002 3.17917 8.76983 1.86667 6.41667 1.86667C5.71905 1.8671 5.02634 1.98341 4.36683 2.21083ZM7.9555 5.7995C8.05959 5.50824 8.07885 5.19342 8.01103 4.89165C7.9432 4.58988 7.79109 4.31357 7.57239 4.09486C7.35368 3.87616 7.07737 3.72405 6.7756 3.65622C6.47383 3.5884 6.159 3.60766 5.86775 3.71175L7.9555 5.7995ZM9.01133 8.83517C8.20633 9.15717 7.33133 9.33392 6.41667 9.33392C3.612 9.33392 1.183 7.67258 0 5.25058C0.570687 4.07732 1.44224 3.07634 2.52583 2.34967L3.03158 2.85542C2.09504 3.45298 1.32376 4.27641 0.788667 5.25C1.93317 7.32083 4.0635 8.63333 6.41667 8.63333C7.11429 8.63289 7.80699 8.51659 8.4665 8.28917L9.01133 8.83517ZM4.34758 4.17083L4.87783 4.70167C4.77374 4.99292 4.75448 5.30775 4.82231 5.60952C4.89013 5.91129 5.04224 6.1876 5.26095 6.4063C5.47965 6.62501 5.75596 6.77712 6.05773 6.84494C6.3595 6.91277 6.67433 6.89351 6.96558 6.78942L7.49642 7.31908C7.05604 7.54931 6.55366 7.63293 6.06245 7.55776C5.57124 7.4826 5.11686 7.25257 4.76547 6.90119C4.41409 6.54981 4.18407 6.09543 4.1089 5.60422C4.03374 5.11301 4.11736 4.61121 4.34758 4.17083Z" fill="#333333"/>
</svg>
